<svg width="63" height="13" viewBox="0 0 63 13" fill="none" xmlns="http://www.w3.org/2000/svg">
<path d="M1.82812 10.7734H7.21875V12H0.320312V0.625H1.82812V10.7734ZM10.2734 12H8.82812V3.54688H10.2734V12ZM8.71094 1.30469C8.71094 1.07031 8.78125 0.872396 8.92188 0.710938C9.06771 0.549479 9.28125 0.46875 9.5625 0.46875C9.84375 0.46875 10.0573 0.549479 10.2031 0.710938C10.349 0.872396 10.4219 1.07031 10.4219 1.30469C10.4219 1.53906 10.349 1.73438 10.2031 1.89062C10.0573 2.04688 9.84375 2.125 9.5625 2.125C9.28125 2.125 9.06771 2.04688 8.92188 1.89062C8.78125 1.73438 8.71094 1.53906 8.71094 1.30469ZM15.3828 10.0391L17.4766 3.54688H18.9531L15.9219 12H14.8203L11.7578 3.54688H13.2344L15.3828 10.0391ZM23.7422 12.1562C22.5964 12.1562 21.6641 11.7812 20.9453 11.0312C20.2266 10.276 19.8672 9.26823 19.8672 8.00781V7.74219C19.8672 6.90365 20.026 6.15625 20.3438 5.5C20.6667 4.83854 21.1146 4.32292 21.6875 3.95312C22.2656 3.57812 22.8906 3.39062 23.5625 3.39062C24.6615 3.39062 25.5156 3.7526 26.125 4.47656C26.7344 5.20052 27.0391 6.23698 27.0391 7.58594V8.1875H21.3125C21.3333 9.02083 21.5755 9.69531 22.0391 10.2109C22.5078 10.7214 23.1016 10.9766 23.8203 10.9766C24.3307 10.9766 24.763 10.8724 25.1172 10.6641C25.4714 10.4557 25.7812 10.1797 26.0469 9.83594L26.9297 10.5234C26.2214 11.612 25.1589 12.1562 23.7422 12.1562ZM23.5625 4.57812C22.9792 4.57812 22.4896 4.79167 22.0938 5.21875C21.6979 5.64062 21.4531 6.23438 21.3594 7H25.5938V6.89062C25.5521 6.15625 25.3542 5.58854 25 5.1875C24.6458 4.78125 24.1667 4.57812 23.5625 4.57812ZM36.0781 10.9766C36.5938 10.9766 37.0443 10.8203 37.4297 10.5078C37.8151 10.1953 38.0286 9.80469 38.0703 9.33594H39.4375C39.4115 9.82031 39.2448 10.2812 38.9375 10.7188C38.6302 11.1562 38.2188 11.5052 37.7031 11.7656C37.1927 12.026 36.651 12.1562 36.0781 12.1562C34.9271 12.1562 34.0104 11.7734 33.3281 11.0078C32.651 10.237 32.3125 9.1849 32.3125 7.85156V7.60938C32.3125 6.78646 32.4635 6.05469 32.7656 5.41406C33.0677 4.77344 33.5 4.27604 34.0625 3.92188C34.6302 3.56771 35.2995 3.39062 36.0703 3.39062C37.0182 3.39062 37.8047 3.67448 38.4297 4.24219C39.0599 4.8099 39.3958 5.54688 39.4375 6.45312H38.0703C38.0286 5.90625 37.8203 5.45833 37.4453 5.10938C37.0755 4.75521 36.6172 4.57812 36.0703 4.57812C35.3359 4.57812 34.7656 4.84375 34.3594 5.375C33.9583 5.90104 33.7578 6.66406 33.7578 7.66406V7.9375C33.7578 8.91146 33.9583 9.66146 34.3594 10.1875C34.7604 10.7135 35.3333 10.9766 36.0781 10.9766ZM42.5078 4.57031C43.1484 3.78385 43.9818 3.39062 45.0078 3.39062C46.7943 3.39062 47.6953 4.39844 47.7109 6.41406V12H46.2656V6.40625C46.2604 5.79688 46.1198 5.34635 45.8438 5.05469C45.5729 4.76302 45.1484 4.61719 44.5703 4.61719C44.1016 4.61719 43.6901 4.74219 43.3359 4.99219C42.9818 5.24219 42.7057 5.57031 42.5078 5.97656V12H41.0625V0H42.5078V4.57031ZM55.0938 12C55.0104 11.8333 54.9427 11.5365 54.8906 11.1094C54.2188 11.8073 53.4167 12.1562 52.4844 12.1562C51.651 12.1562 50.9661 11.9219 50.4297 11.4531C49.8984 10.9792 49.6328 10.3802 49.6328 9.65625C49.6328 8.77604 49.9661 8.09375 50.6328 7.60938C51.3047 7.11979 52.2474 6.875 53.4609 6.875H54.8672V6.21094C54.8672 5.70573 54.7161 5.30469 54.4141 5.00781C54.112 4.70573 53.6667 4.55469 53.0781 4.55469C52.5625 4.55469 52.1302 4.6849 51.7812 4.94531C51.4323 5.20573 51.2578 5.52083 51.2578 5.89062H49.8047C49.8047 5.46875 49.9531 5.0625 50.25 4.67188C50.5521 4.27604 50.9583 3.96354 51.4688 3.73438C51.9844 3.50521 52.5495 3.39062 53.1641 3.39062C54.138 3.39062 54.901 3.63542 55.4531 4.125C56.0052 4.60938 56.2917 5.27865 56.3125 6.13281V10.0234C56.3125 10.7995 56.4115 11.4167 56.6094 11.875V12H55.0938ZM52.6953 10.8984C53.1484 10.8984 53.5781 10.7812 53.9844 10.5469C54.3906 10.3125 54.6849 10.0078 54.8672 9.63281V7.89844H53.7344C51.9635 7.89844 51.0781 8.41667 51.0781 9.45312C51.0781 9.90625 51.2292 10.2604 51.5312 10.5156C51.8333 10.7708 52.2214 10.8984 52.6953 10.8984ZM60.5391 1.5V3.54688H62.1172V4.66406H60.5391V9.90625C60.5391 10.2448 60.6094 10.5 60.75 10.6719C60.8906 10.8385 61.1302 10.9219 61.4688 10.9219C61.6354 10.9219 61.8646 10.8906 62.1562 10.8281V12C61.776 12.1042 61.4062 12.1562 61.0469 12.1562C60.401 12.1562 59.9141 11.9609 59.5859 11.5703C59.2578 11.1797 59.0938 10.625 59.0938 9.90625V4.66406H57.5547V3.54688H59.0938V1.5H60.5391Z" fill="white"/>
</svg>
