<svg width="21" height="21" viewBox="0 0 21 21" fill="none" xmlns="http://www.w3.org/2000/svg">
<g clip-path="url(#clip0)">
<path d="M10.432 18.197C11.7718 18.197 12.858 17.1108 12.858 15.771C12.858 14.4311 11.7718 13.345 10.432 13.345C9.09214 13.345 8.00598 14.4311 8.00598 15.771C8.00598 17.1108 9.09214 18.197 10.432 18.197Z" fill="white"/>
<path d="M16.23 9.92598C16.194 9.88898 16.156 9.85598 16.119 9.82198L16.01 9.71898C15.9921 9.69998 15.972 9.68598 15.949 9.66798C12.812 6.81798 8.01105 6.93098 5.01705 9.92498L4.66605 10.277L4.18005 10.763C3.58805 11.355 3.59105 12.32 4.18405 12.913C4.77805 13.508 5.74305 13.509 6.33405 12.917L7.17205 12.079C9.07605 10.176 12.173 10.176 14.076 12.078L14.681 12.664C15.267 13.25 16.2231 13.249 16.812 12.659C17.097 12.375 17.254 11.996 17.255 11.593C17.256 11.192 17.101 10.813 16.816 10.53L16.23 9.92598Z" fill="white"/>
<path d="M20.363 6.92702L19.859 6.42302C19.857 6.42102 19.856 6.41802 19.852 6.41702L19.454 6.01702C19.384 5.94802 19.308 5.88802 19.228 5.83602C14.115 1.34702 6.33801 1.48502 1.38801 6.24702C1.36401 6.26902 1.33701 6.28402 1.31301 6.30802L0.40301 7.21902C-0.13699 7.75802 -0.13399 8.63502 0.40901 9.17802C0.95101 9.72002 1.82801 9.72401 2.36801 9.18301L3.27801 8.27402C3.28401 8.26602 3.28901 8.25902 3.29501 8.25401C7.29801 4.38701 13.648 4.36302 17.683 8.17502L18.399 8.89202C18.938 9.43102 19.817 9.42902 20.359 8.88702C20.9 8.34402 20.902 7.46602 20.363 6.92702Z" fill="white"/>
</g>
<defs>
<clipPath id="clip0">
<rect width="20.766" height="20.766" fill="white"/>
</clipPath>
</defs>
</svg>
